<?xml version="1.0" encoding="UTF-8" standalone="no"?>
<!DOCTYPE svg PUBLIC "-//W3C//DTD SVG 1.1//EN" "http://www.w3.org/Graphics/SVG/1.1/DTD/svg11.dtd">
<svg width="100%" height="100%" viewBox="0 0 48 48" version="1.1" xmlns="http://www.w3.org/2000/svg" xmlns:xlink="http://www.w3.org/1999/xlink" xml:space="preserve" xmlns:serif="http://www.serif.com/" style="fill-rule:evenodd;clip-rule:evenodd;stroke-linejoin:round;stroke-miterlimit:2;">
    <path d="M4,15.421L4,33.75C4,37.202 6.798,40 10.25,40L37.75,40C41.202,40 44,37.202 44,33.75L44,15.5L24.582,25.724C24.217,25.917 23.779,25.916 23.414,25.722L4,15.421Z" style="fill:rgb(54,122,242);fill-rule:nonzero;"/>
    <path d="M4,15.421L4,33.75C4,37.202 6.798,40 10.25,40L37.75,40C41.202,40 44,37.202 44,33.75L44,15.5L24.582,25.724C24.217,25.917 23.779,25.916 23.414,25.722L4,15.421Z" style="fill:url(#_Linear1);fill-rule:nonzero;"/>
    <path d="M4,15.421L4,33.75C4,37.202 6.798,40 10.25,40L37.75,40C41.202,40 44,37.202 44,33.75L44,15.5L24.582,25.724C24.217,25.917 23.779,25.916 23.414,25.722L4,15.421Z" style="fill:url(#_Linear2);fill-rule:nonzero;"/>
    <path d="M4,15.421L4,33.75C4,37.202 6.798,40 10.25,40L37.75,40C41.202,40 44,37.202 44,33.75L44,15.5L24.582,25.724C24.217,25.917 23.779,25.916 23.414,25.722L4,15.421Z" style="fill:url(#_Linear3);fill-rule:nonzero;"/>
    <path d="M4,15.421L4,33.75C4,37.202 6.798,40 10.25,40L37.75,40C41.202,40 44,37.202 44,33.75L44,15.5L24.582,25.724C24.217,25.917 23.779,25.916 23.414,25.722L4,15.421Z" style="fill:url(#_Linear4);fill-rule:nonzero;"/>
    <path d="M4.02,13.747C4.276,10.53 6.968,8 10.25,8L37.75,8C41.06,8 43.769,10.573 43.986,13.828C43.995,13.967 44,14.108 44,14.25L44,15.63L24.582,25.854C24.217,26.047 23.779,26.046 23.414,25.852L4,15.551L4,14.25C4,14.081 4.007,13.913 4.02,13.747Z" style="fill:url(#_Linear5);fill-rule:nonzero;"/>
    <g transform="matrix(0.5,0,0,0.5,36,36)">
        <g transform="matrix(1,0,0,1,-24,-24)">
            <path d="M16,12L16,15L18.5,15L18.5,12C18.5,8.962 20.962,6.5 24,6.5C27.038,6.5 29.5,8.962 29.5,12L29.5,15L32,15L32,12C32,7.582 28.418,4 24,4C19.582,4 16,7.582 16,12Z" style="fill:url(#_Linear6);fill-rule:nonzero;"/>
            <path d="M40,20.25C40,16.798 37.202,14 33.75,14L14.25,14C10.798,14 8,16.798 8,20.25L8,35.75C8,39.202 10.798,42 14.25,42L33.75,42C37.202,42 40,39.202 40,35.75L40,20.25Z" style="fill:url(#_Linear7);fill-rule:nonzero;"/>
            <path d="M27,28C27,29.657 25.657,31 24,31C22.343,31 21,29.657 21,28C21,26.343 22.343,25 24,25C25.657,25 27,26.343 27,28Z" style="fill:url(#_Radial8);fill-rule:nonzero;"/>
        </g>
    </g>
    <defs>
        <linearGradient id="_Linear1" x1="0" y1="0" x2="1" y2="0" gradientUnits="userSpaceOnUse" gradientTransform="matrix(8.662,21.4443,-21.4443,8.662,31,19.5)"><stop offset="0" style="stop-color:rgb(0,148,240);stop-opacity:0"/><stop offset="0.2" style="stop-color:rgb(0,148,240);stop-opacity:0"/><stop offset="0.43" style="stop-color:rgb(0,148,240);stop-opacity:1"/><stop offset="1" style="stop-color:rgb(0,148,240);stop-opacity:1"/></linearGradient>
        <linearGradient id="_Linear2" x1="0" y1="0" x2="1" y2="0" gradientUnits="userSpaceOnUse" gradientTransform="matrix(-10.33048,23.8228,-23.8228,-10.33048,18.2857,18.0082)"><stop offset="0" style="stop-color:rgb(0,148,240);stop-opacity:0"/><stop offset="0.19" style="stop-color:rgb(0,148,240);stop-opacity:0"/><stop offset="0.43" style="stop-color:rgb(0,148,240);stop-opacity:1"/><stop offset="1" style="stop-color:rgb(0,148,240);stop-opacity:1"/></linearGradient>
        <linearGradient id="_Linear3" x1="0" y1="0" x2="1" y2="0" gradientUnits="userSpaceOnUse" gradientTransform="matrix(1.6815,12.1874,-12.1874,1.6815,34.5469,30.0845)"><stop offset="0" style="stop-color:rgb(39,100,231);stop-opacity:0"/><stop offset="1" style="stop-color:rgb(39,100,231);stop-opacity:0.75"/></linearGradient>
        <linearGradient id="_Linear4" x1="0" y1="0" x2="1" y2="0" gradientUnits="userSpaceOnUse" gradientTransform="matrix(3.0675,24.805,-24.805,3.0675,30.1905,18.4394)"><stop offset="0" style="stop-color:rgb(255,108,232);stop-opacity:0"/><stop offset="0.53" style="stop-color:rgb(255,108,232);stop-opacity:0"/><stop offset="1" style="stop-color:rgb(255,108,232);stop-opacity:0.7"/></linearGradient>
        <linearGradient id="_Linear5" x1="0" y1="0" x2="1" y2="0" gradientUnits="userSpaceOnUse" gradientTransform="matrix(12.174,31.98632,-31.98632,12.174,15.8832,2.27508)"><stop offset="0" style="stop-color:rgb(108,224,255);stop-opacity:1"/><stop offset="0.46" style="stop-color:rgb(41,195,255);stop-opacity:1"/><stop offset="1" style="stop-color:rgb(72,148,254);stop-opacity:1"/></linearGradient>
        <linearGradient id="_Linear6" x1="0" y1="0" x2="1" y2="0" gradientUnits="userSpaceOnUse" gradientTransform="matrix(12.2412,20.21469,-20.21469,12.2412,19.4286,1.89851)"><stop offset="0" style="stop-color:rgb(255,194,5);stop-opacity:1"/><stop offset="1" style="stop-color:rgb(251,89,55);stop-opacity:1"/></linearGradient>
        <linearGradient id="_Linear7" x1="0" y1="0" x2="1" y2="0" gradientUnits="userSpaceOnUse" gradientTransform="matrix(-29.2017,-27.1944,27.1944,-29.2017,42.2857,43.75)"><stop offset="0" style="stop-color:rgb(255,111,71);stop-opacity:1"/><stop offset="1" style="stop-color:rgb(255,205,15);stop-opacity:1"/></linearGradient>
        <radialGradient id="_Radial8" cx="0" cy="0" r="1" gradientUnits="userSpaceOnUse" gradientTransform="matrix(-2.999937,-10.500055,14.568751,-4.162391,25.5,31)"><stop offset="0" style="stop-color:rgb(148,70,0);stop-opacity:1"/><stop offset="1" style="stop-color:rgb(205,142,2);stop-opacity:1"/></radialGradient>
    </defs>
</svg>
